# Blender v2.79 (sub 0) OBJ File: ''
# www.blender.org
v 0.000000 -0.707107 -0.100000
v 0.000000 -0.707107 0.100000
v -0.446881 0.000000 0.100000
v -0.446881 -0.000000 -0.100000
v 0.470302 -0.000000 -0.100000
v 0.470302 0.000000 0.100000
v -0.000000 0.707107 0.100000
v 0.000000 0.707107 -0.100000
vt 0.000000 0.507617
vt 0.379879 0.152436
vt 0.379879 0.507617
vt 0.000000 0.932230
vt 0.322603 0.507617
vt 0.322603 0.932230
vt 1.000000 0.000000
vt 0.677397 0.424612
vt 0.677397 0.000000
vt 0.677397 0.860592
vt 0.387287 0.644916
vt 0.677397 0.500000
vt 0.000000 0.152436
vt 0.379879 0.000000
vt 0.677397 0.360592
vt 0.387287 0.144916
vt 0.677397 0.000000
vt 0.000000 0.507617
vt 1.000000 0.424613
vt 0.379879 1.000000
vt 0.000000 0.000000
vt 0.379879 0.500000
vn -0.8453 -0.5342 0.0000
vn 0.8326 0.5538 0.0000
vn 0.8326 -0.5538 0.0000
vn -0.0000 -0.0000 1.0000
vn -0.8453 0.5342 -0.0000
vn 0.0000 -0.0000 -1.0000
s off
f 2/1/1 4/2/1 1/3/1
f 8/4/2 6/5/2 5/6/2
f 5/7/3 2/8/3 1/9/3
f 6/10/4 3/11/4 2/12/4
f 3/13/5 8/14/5 4/2/5
f 5/15/6 4/16/6 8/17/6
f 2/1/1 3/13/1 4/2/1
f 8/4/2 7/18/2 6/5/2
f 5/7/3 6/19/3 2/8/3
f 6/10/4 7/20/4 3/11/4
f 3/13/5 7/21/5 8/14/5
f 5/15/6 1/22/6 4/16/6
