# Blender v2.79 (sub 0) OBJ File: 'lamp.blend'
# www.blender.org
v -0.202178 0.651567 -0.202178
v -0.202178 0.651567 0.202178
v 0.202178 0.651567 0.202178
v 0.202178 0.651567 -0.202178
v -0.514237 -0.443020 -0.514237
v -0.514237 -0.443020 0.514238
v 0.514238 -0.443020 0.514237
v 0.514237 -0.443020 -0.514237
v -0.489124 0.815227 0.000000
v 0.000000 0.815227 -0.489125
v -0.550589 -0.215428 -0.550588
v 0.000000 0.815227 0.489124
v -0.550588 -0.215428 0.550589
v 0.489124 0.815227 -0.000000
v 0.550589 -0.215428 0.550589
v 0.550589 -0.215428 -0.550589
v -0.587802 -0.489764 0.000000
v -0.000000 -0.489765 -0.587802
v 0.000000 -0.489765 0.587802
v 0.587803 -0.489765 -0.000000
v -0.000000 -0.226156 -0.733783
v 0.733783 -0.226156 -0.000000
v 0.000000 -0.226156 0.733783
v -0.733783 -0.226156 0.000000
v 0.000000 -0.597813 0.000000
v 0.000000 0.651567 -0.000000
v -0.202178 0.651567 0.000000
v -0.489124 0.815227 0.489124
v 0.000000 0.651567 -0.202178
v 0.489124 0.815227 -0.489125
v 0.000000 0.651567 0.202178
v 0.489125 0.815227 0.489124
v 0.202178 0.651567 -0.000000
v -0.489124 0.815227 -0.489125
v -1.000000 -0.498387 0.000000
v -1.000000 -0.498387 1.000000
v -0.000000 -0.498387 -1.000000
v 1.000000 -0.498387 -1.000000
v 0.000000 -0.498387 1.000000
v 1.000000 -0.498387 1.000000
v 1.000000 -0.498387 -0.000000
v -1.000000 -0.498387 -1.000000
v -0.489124 0.126140 0.000000
v -0.489124 0.126140 0.489124
v 0.000000 0.126140 -0.489125
v 0.489124 0.126140 -0.489125
v 0.000000 0.126140 0.489124
v 0.489125 0.126140 0.489124
v 0.489124 0.126140 -0.000000
v -0.489124 0.126140 -0.489125
v -0.000000 -0.498387 -1.000000
v 0.000000 -0.498387 1.000000
v -1.000000 -0.498387 0.000000
v -1.000000 -0.498387 1.000000
v 1.000000 -0.498387 -1.000000
v 1.000000 -0.498387 1.000000
v 1.000000 -0.498387 -0.000000
v -1.000000 -0.498387 -1.000000
vt 0.585692 0.780281
vt 0.491779 0.830868
vt 0.498726 0.778401
vt 0.998726 0.244567
vt 0.899057 0.448939
vt 0.817820 0.296199
vt 0.506931 0.212943
vt 0.693278 0.182038
vt 0.662817 0.270187
vt 0.778731 0.410191
vt 0.883355 0.555956
vt 0.004343 0.593794
vt 0.107516 0.439377
vt 0.124386 0.545717
vt 0.228221 0.396546
vt 0.187838 0.285269
vt 0.316516 0.172475
vt 1.004343 0.593794
vt 0.346690 0.259948
vt 0.512221 0.138192
vt 1.316516 0.172475
vt 1.107516 0.439377
vt 1.187838 0.285269
vt 0.414322 0.776521
vt 0.358175 0.828989
vt 0.441399 0.724053
vt 0.500980 0.725933
vt 0.586235 0.725943
vt 0.732327 0.558445
vt 0.637947 0.852877
vt 0.365074 0.843781
vt 0.378140 0.422415
vt 0.418631 0.716848
vt 0.508289 0.027538
vt 0.340396 0.018240
vt 0.508289 0.027538
vt 0.504492 0.426963
vt 0.502039 0.721395
vt 0.120187 0.537264
vt 0.003845 0.546562
vt 0.120187 0.537264
vt 0.298618 0.975263
vt 0.155210 0.676283
vt 0.255211 0.970715
vt 0.561270 0.727813
vt 0.639511 0.832748
vt 0.751862 0.979811
vt 0.629939 0.431511
vt 0.669260 0.036835
vt 0.212990 0.277752
vt 0.274696 0.549349
vt 0.854062 0.685378
vt 0.793594 0.296348
vt 0.887282 0.555860
vt 0.003845 0.546562
vt 0.340396 0.018240
vt 1.003845 0.546562
vt 1.006634 0.680831
vt 1.298618 0.975263
vt 0.793594 0.296348
vt 0.887282 0.555860
vt 0.212990 0.277752
vt 0.669260 0.036835
vt 1.003845 0.546562
vt 1.003154 0.443276
vt 0.003154 0.443276
vt 0.006633 0.680831
vn 0.0000 1.0000 0.0000
vn 0.1145 -0.9771 0.1796
vn -0.9288 -0.1983 0.3129
vn 0.3129 -0.1983 0.9288
vn 0.9288 -0.1983 -0.3129
vn 0.1668 -0.4777 -0.8626
vn -0.1668 -0.4777 -0.8626
vn 0.9288 -0.1983 0.3129
vn -0.3129 -0.1983 0.9288
vn -0.9288 -0.1983 -0.3129
vn -0.1796 -0.9771 0.1145
vn -0.1796 -0.9771 -0.1145
vn 0.1145 -0.9771 -0.1796
vn 0.0000 -0.0000 1.0000
vn -0.0000 0.0000 -1.0000
vn -1.0000 0.0000 0.0000
vn 1.0000 -0.0000 -0.0000
vn 0.4954 0.8686 0.0000
vn 0.0000 0.8686 0.4954
vn 0.0000 0.8686 -0.4954
vn -0.4954 0.8686 0.0000
vn -0.7740 0.6332 0.0000
vn -0.0000 0.6332 -0.7740
vn 0.0000 0.6332 0.7740
vn 0.7740 0.6332 -0.0000
vn 0.1796 -0.9771 0.1145
vn -0.8626 -0.4777 0.1668
vn 0.1668 -0.4777 0.8626
vn 0.8626 -0.4777 -0.1668
vn 0.3129 -0.1983 -0.9288
vn -0.3129 -0.1983 -0.9288
vn 0.8626 -0.4777 0.1668
vn -0.1668 -0.4777 0.8626
vn -0.8626 -0.4777 -0.1668
vn -0.1145 -0.9771 0.1796
vn -0.1145 -0.9771 -0.1796
vn 0.1796 -0.9771 -0.1145
s off
f 31/1/1 33/2/1 26/3/1
f 25/4/2 7/5/2 19/6/2
f 24/7/3 6/8/3 13/9/3
f 23/10/4 7/5/4 15/11/4
f 22/12/5 8/13/5 16/14/5
f 21/15/6 8/13/6 18/16/6
f 5/17/7 21/15/7 18/16/7
f 7/5/8 22/18/8 15/11/8
f 6/8/9 23/10/9 13/9/9
f 5/17/10 24/7/10 11/19/10
f 25/4/11 6/8/11 17/20/11
f 5/21/12 25/4/12 17/20/12
f 8/22/13 25/4/13 18/23/13
f 29/24/1 33/2/1 4/25/1
f 1/26/1 26/3/1 29/24/1
f 27/27/1 31/1/1 26/3/1
f 28/28/14 47/29/14 12/30/14
f 10/31/15 50/32/15 34/33/15
f 35/34/14 58/35/14 53/36/14
f 34/33/16 43/37/16 9/38/16
f 38/39/14 57/40/14 55/41/14
f 14/42/17 46/43/17 30/44/17
f 2/45/18 9/38/18 28/28/18
f 4/25/19 10/31/19 29/24/19
f 3/46/20 12/30/20 32/47/20
f 4/25/21 14/42/21 30/44/21
f 1/26/18 9/38/18 27/27/18
f 1/26/19 10/31/19 34/33/19
f 2/45/20 12/30/20 31/1/20
f 3/46/21 14/42/21 33/2/21
f 44/48/22 35/34/22 36/49/22
f 46/43/23 37/50/23 45/51/23
f 48/52/24 39/53/24 40/54/24
f 46/43/25 41/55/25 38/39/25
f 50/32/22 35/34/22 43/37/22
f 50/32/23 37/50/23 42/56/23
f 44/48/24 39/53/24 47/29/24
f 48/52/25 41/57/25 49/58/25
f 32/47/17 49/58/17 14/59/17
f 9/38/16 44/48/16 28/28/16
f 30/44/15 45/51/15 10/31/15
f 40/54/14 52/60/14 56/61/14
f 12/30/14 48/52/14 32/47/14
f 42/56/14 51/62/14 58/35/14
f 39/53/14 54/63/14 52/60/14
f 41/57/14 56/61/14 57/64/14
f 36/49/14 53/36/14 54/63/14
f 37/50/14 55/41/14 51/62/14
f 31/1/1 3/46/1 33/2/1
f 25/4/26 20/65/26 7/5/26
f 24/7/27 17/20/27 6/8/27
f 23/10/28 19/6/28 7/5/28
f 22/12/29 20/66/29 8/13/29
f 21/15/30 16/14/30 8/13/30
f 5/17/31 11/19/31 21/15/31
f 7/5/32 20/65/32 22/18/32
f 6/8/33 19/6/33 23/10/33
f 5/17/34 17/20/34 24/7/34
f 25/4/35 19/6/35 6/8/35
f 5/21/36 18/23/36 25/4/36
f 8/22/37 20/65/37 25/4/37
f 29/24/1 26/3/1 33/2/1
f 1/26/1 27/27/1 26/3/1
f 27/27/1 2/45/1 31/1/1
f 28/28/14 44/48/14 47/29/14
f 10/31/15 45/51/15 50/32/15
f 35/34/14 42/56/14 58/35/14
f 34/33/16 50/32/16 43/37/16
f 38/39/14 41/55/14 57/40/14
f 14/42/17 49/67/17 46/43/17
f 2/45/18 27/27/18 9/38/18
f 4/25/19 30/44/19 10/31/19
f 3/46/20 31/1/20 12/30/20
f 4/25/21 33/2/21 14/42/21
f 1/26/18 34/33/18 9/38/18
f 1/26/19 29/24/19 10/31/19
f 2/45/20 28/28/20 12/30/20
f 3/46/21 32/47/21 14/42/21
f 44/48/22 43/37/22 35/34/22
f 46/43/23 38/39/23 37/50/23
f 48/52/24 47/29/24 39/53/24
f 46/43/25 49/67/25 41/55/25
f 50/32/22 42/56/22 35/34/22
f 50/32/23 45/51/23 37/50/23
f 44/48/24 36/49/24 39/53/24
f 48/52/25 40/54/25 41/57/25
f 32/47/17 48/52/17 49/58/17
f 9/38/16 43/37/16 44/48/16
f 30/44/15 46/43/15 45/51/15
f 40/54/14 39/53/14 52/60/14
f 12/30/14 47/29/14 48/52/14
f 42/56/14 37/50/14 51/62/14
f 39/53/14 36/49/14 54/63/14
f 41/57/14 40/54/14 56/61/14
f 36/49/14 35/34/14 53/36/14
f 37/50/14 38/39/14 55/41/14
